<?xml version="1.0" standalone="no"?>
<!DOCTYPE svg PUBLIC "-//W3C//DTD SVG 20010904//EN"
 "http://www.w3.org/TR/2001/REC-SVG-20010904/DTD/svg10.dtd">
<svg version="1.0" xmlns="http://www.w3.org/2000/svg"
 width="400.000000pt" height="400.000000pt" viewBox="0 0 400.000000 400.000000"
 preserveAspectRatio="xMidYMid meet">
<metadata>
Created by potrace 1.11, written by Peter Selinger 2001-2013
</metadata>
<g transform="translate(0.000000,400.000000) scale(0.100000,-0.100000)"
fill="#000000" stroke="none">
<path d="M1859 3996 c-2 -2 -40 -6 -84 -10 -88 -7 -84 -6 -216 -35 -167 -37
-309 -88 -464 -167 -203 -104 -351 -212 -513 -375 -104 -105 -105 -106 -153
-169 -19 -25 -36 -47 -39 -50 -9 -9 -90 -130 -90 -135 0 -2 -11 -20 -24 -39
-36 -54 -134 -257 -151 -316 -4 -14 -11 -30 -16 -35 -4 -6 -10 -25 -14 -42 -3
-18 -10 -44 -15 -59 -19 -50 -61 -258 -68 -339 -8 -98 -8 -342 0 -450 13 -158
78 -402 150 -565 38 -85 82 -171 90 -176 4 -3 8 -12 8 -20 0 -8 5 -20 10 -27
6 -7 36 -50 66 -96 30 -46 61 -90 67 -97 7 -7 21 -25 32 -40 135 -176 411
-411 580 -494 17 -8 38 -21 48 -29 9 -8 17 -10 17 -6 0 4 8 1 18 -7 62 -55
432 -174 597 -193 33 -3 89 -10 125 -15 65 -8 357 -6 395 3 11 3 49 8 85 12
36 3 88 13 116 20 28 8 67 17 88 20 20 4 53 13 74 22 20 8 47 17 61 20 13 2
44 13 67 23 24 11 48 20 53 20 6 0 30 9 53 21 67 32 94 47 178 95 93 53 220
138 253 168 15 14 30 26 33 26 6 0 221 215 267 268 20 23 37 47 37 52 0 6 4
10 8 10 25 0 242 380 271 472 6 18 24 73 41 122 17 50 33 102 35 118 3 16 12
52 19 82 8 29 17 79 21 112 3 32 10 86 14 119 9 60 7 363 -2 400 -3 11 -8 49
-12 85 -3 36 -12 88 -20 115 -7 28 -16 64 -18 82 -6 40 -57 195 -69 208 -4 5
-8 15 -8 23 0 22 -72 176 -120 257 -16 28 -37 65 -47 83 -9 17 -20 32 -25 32
-4 0 -8 5 -8 11 0 6 -9 23 -20 37 -141 183 -165 209 -335 368 -69 64 -252 194
-274 194 -6 0 -11 4 -11 8 0 4 -15 15 -32 23 -18 9 -71 35 -116 58 -88 45
-185 84 -264 106 -25 7 -51 15 -56 19 -13 8 -235 53 -297 61 -59 7 -390 16
-396 11z"/>
</g>
</svg>
